<svg xmlns="http://www.w3.org/2000/svg" viewBox="0 0 193.13 193.12"><defs><style>.cls-1{fill:#1b1e37;}</style></defs><title>Recurso 3</title><g id="Capa_2" data-name="Capa 2"><g id="Capa_1-2" data-name="Capa 1"><path class="cls-1" d="M177,19.31H160.94V12.88a12.88,12.88,0,1,0-25.75,0v6.43H109.44V12.88a12.88,12.88,0,1,0-25.75,0v6.43H57.94V12.88a12.88,12.88,0,1,0-25.75,0v6.43H16.09A16.1,16.1,0,0,0,0,35.41V164.16a16.08,16.08,0,0,0,16.09,16.09h90.13a3.23,3.23,0,0,0,3.22-3.22,3.24,3.24,0,0,0-3.22-3.22H16.09a9.66,9.66,0,0,1-9.65-9.65V64.38H186.69v54.71a3.22,3.22,0,0,0,5.49,2.28,3.18,3.18,0,0,0,.94-2.28V35.41A16.1,16.1,0,0,0,177,19.31Zm-35.41-6.43a6.44,6.44,0,1,1,12.88,0V32.19a6.44,6.44,0,0,1-12.88,0Zm-51.49,0a6.44,6.44,0,1,1,12.87,0V32.19a6.44,6.44,0,1,1-12.87,0Zm-51.5,0a6.44,6.44,0,1,1,12.87,0V32.19a6.44,6.44,0,1,1-12.87,0ZM186.69,57.94H6.44V35.41a9.68,9.68,0,0,1,9.65-9.66h16.1v6.44a12.88,12.88,0,0,0,25.75,0V25.75H83.69v6.44a12.88,12.88,0,0,0,25.75,0V25.75h25.75v6.44a12.88,12.88,0,0,0,25.75,0V25.75H177a9.7,9.7,0,0,1,9.66,9.66Z"/><path class="cls-1" d="M90.13,86.91a6.44,6.44,0,0,0-6.44-6.44H70.81a6.42,6.42,0,0,0-6.43,6.44v9.65A6.44,6.44,0,0,0,70.81,103H83.69a6.45,6.45,0,0,0,6.44-6.44ZM70.81,96.56V86.91H83.69v9.65Z"/><path class="cls-1" d="M51.5,86.91a6.44,6.44,0,0,0-6.44-6.44H32.19a6.44,6.44,0,0,0-6.44,6.44v9.65A6.45,6.45,0,0,0,32.19,103H45.06a6.45,6.45,0,0,0,6.44-6.44ZM32.19,96.56V86.91H45.06v9.65Z"/><path class="cls-1" d="M160.94,103a6.44,6.44,0,0,0,6.43-6.44V86.91a6.42,6.42,0,0,0-6.43-6.44H148.06a6.44,6.44,0,0,0-6.44,6.44v9.65a6.45,6.45,0,0,0,6.44,6.44ZM148.06,86.91h12.88v9.65H148.06Z"/><path class="cls-1" d="M90.13,115.87a6.44,6.44,0,0,0-6.44-6.43H70.81a6.42,6.42,0,0,0-6.43,6.43v9.66A6.44,6.44,0,0,0,70.81,132H83.69a6.45,6.45,0,0,0,6.44-6.44Zm-19.32,9.66v-9.66H83.69v9.66Z"/><path class="cls-1" d="M51.5,115.87a6.44,6.44,0,0,0-6.44-6.43H32.19a6.44,6.44,0,0,0-6.44,6.43v9.66A6.45,6.45,0,0,0,32.19,132H45.06a6.45,6.45,0,0,0,6.44-6.44Zm-19.31,9.66v-9.66H45.06v9.66Z"/><path class="cls-1" d="M83.69,138.41H70.81a6.42,6.42,0,0,0-6.43,6.43v9.66a6.44,6.44,0,0,0,6.43,6.44H83.69a6.45,6.45,0,0,0,6.44-6.44v-9.66a6.44,6.44,0,0,0-6.44-6.43ZM70.81,154.5v-9.66H83.69v9.66Z"/><path class="cls-1" d="M109.44,103h12.87a6.45,6.45,0,0,0,6.44-6.44V86.91a6.44,6.44,0,0,0-6.44-6.44H109.44A6.44,6.44,0,0,0,103,86.91v9.65a6.45,6.45,0,0,0,6.44,6.44Zm0-16.09h12.87v9.65H109.44Z"/><path class="cls-1" d="M103,125.53a6.45,6.45,0,0,0,6.44,6.44,3.22,3.22,0,0,0,0-6.44v-9.66h12.87a3.22,3.22,0,0,0,2.28-5.49,3.24,3.24,0,0,0-2.28-.94H109.44a6.44,6.44,0,0,0-6.44,6.43Z"/><path class="cls-1" d="M45.06,138.41H32.19a6.44,6.44,0,0,0-6.44,6.43v9.66a6.45,6.45,0,0,0,6.44,6.44H45.06a6.45,6.45,0,0,0,6.44-6.44v-9.66a6.44,6.44,0,0,0-6.44-6.43ZM32.19,154.5v-9.66H45.06v9.66Z"/><path class="cls-1" d="M151.28,109.44a41.89,41.89,0,1,0,29.58,12.27A41.87,41.87,0,0,0,151.28,109.44Zm0,77.25a35.44,35.44,0,1,1,25-10.38A35.41,35.41,0,0,1,151.28,186.69Z"/><path class="cls-1" d="M169.88,137.79l-25,25-11.37-11.38a3.24,3.24,0,0,0-4.52,0,3.28,3.28,0,0,0-.94,2.25,3.22,3.22,0,0,0,.9,2.26l13.66,13.66a3.22,3.22,0,0,0,4.55,0l27.31-27.31a3.19,3.19,0,0,0,.9-2.26,3.15,3.15,0,0,0-.94-2.25,3.2,3.2,0,0,0-4.51,0Z"/></g></g></svg>