<svg xmlns="http://www.w3.org/2000/svg" xmlns:xlink="http://www.w3.org/1999/xlink" viewBox="0 0 244.17 236.54"><defs><style>.cls-1{fill:none;}.cls-2{clip-path:url(#clip-path);}.cls-3{fill:#1b1e37;}</style><clipPath id="clip-path" transform="translate(0 -3.82)"><rect class="cls-1" width="244.17" height="244.17"/></clipPath></defs><title>Recurso 1</title><g id="Capa_2" data-name="Capa 2"><g id="Capa_1-2" data-name="Capa 1"><g class="cls-2"><path class="cls-3" d="M231.1,116.5l8.51,1.7a3.8,3.8,0,0,0,2.86-.57,3.92,3.92,0,0,0,1.06-1,3.81,3.81,0,0,0,.57-1.38,3.69,3.69,0,0,0,0-1.48,3.81,3.81,0,0,0-.57-1.38,3.62,3.62,0,0,0-1.05-1,3.86,3.86,0,0,0-1.37-.58L232.48,109c.16-1.68.25-3.44.25-5.29,0-.16,0-.33,0-.5s0-.13,0-.19V97l8.37-1.67a3.83,3.83,0,0,0,1.38-.58,3.62,3.62,0,0,0,1.05-1,3.81,3.81,0,0,0,.57-1.38,3.69,3.69,0,0,0,0-1.48,3.81,3.81,0,0,0-.57-1.38,3.92,3.92,0,0,0-1.06-1,3.8,3.8,0,0,0-2.86-.57l-6.88,1.38V54.32A8.53,8.53,0,0,0,231.55,50a8.63,8.63,0,0,0-3.22-3.13,8.49,8.49,0,0,0-8.65.23l-.26.17L206,57.24a49.52,49.52,0,0,0-38.19,0l-13.38-10-.26-.18a8.61,8.61,0,0,0-4.3-1.29,8.52,8.52,0,0,0-4.36,1.07c-.2.11-.41.24-.6.37L125.14,20.66l-.19-.24c-2.94-3.35-7.66-7.93-14.63-8.94l-.54,0h-7.6C96.41,6.26,89.32,3.82,80.12,3.82s-16.3,2.44-22.06,7.63h-7.6l-.54,0c-7,1-11.7,5.58-14.64,8.94l-.19.24-20,26.87a3.46,3.46,0,0,0-.29.45A26.9,26.9,0,0,0,31,86.77c1.56,11.13,6.92,20,13.78,22.87a41.59,41.59,0,0,0-10.42,27.71v10c-9.43,17.48-15.26,38.4-15.26,54.84a57.11,57.11,0,0,0,.47,7.62H3.82A3.82,3.82,0,0,0,0,213.65a26.73,26.73,0,0,0,26.71,26.71H125.9a11.46,11.46,0,0,0,11.44-11.2,2.44,2.44,0,0,0,0,.27A11.54,11.54,0,0,0,149,240.36h80.42a14.75,14.75,0,0,0,14.73-14.73v-1.07a14.72,14.72,0,0,0-4.35-10.44,51.1,51.1,0,0,0,.54-7.62c0-15.65-6-35.84-15.26-51.74v-2.15a34,34,0,0,0-6.68-20.35q.84-.42,1.62-.9A24.52,24.52,0,0,0,231.1,116.5Zm-7.29-63a.85.85,0,0,1,.44-.09,1,1,0,0,1,.43.14.84.84,0,0,1,.3.32.88.88,0,0,1,.12.44v20A45.25,45.25,0,0,0,221,68.53a41.94,41.94,0,0,0-7.72-7.16Zm-74.56,0a1,1,0,0,1,.41-.12.87.87,0,0,1,.42.1l10.54,7.86a41.94,41.94,0,0,0-7.72,7.16,45.86,45.86,0,0,0-4.11,5.78V61.41q0-.63,0-1.26V54.32a.88.88,0,0,1,.46-.79ZM129.79,115.2a3.81,3.81,0,0,0,.57,1.38,4,4,0,0,0,1,1,3.88,3.88,0,0,0,1.38.57,3.74,3.74,0,0,0,1.49,0l8.5-1.7a24.53,24.53,0,0,0,11.07,14.86c.5.31,1,.61,1.6.91a34.08,34.08,0,0,0-6.67,20.34v2.17a118.7,118.7,0,0,0-10.65,24.47,136.34,136.34,0,0,0-12.23-31.88v-10a41.64,41.64,0,0,0-10.42-27.71c6.86-2.88,12.22-11.74,13.77-22.87a26.49,26.49,0,0,0,11.91-7.12V89.2l-6.88-1.38a3.74,3.74,0,0,0-1.49,0,3.88,3.88,0,0,0-1.38.57,4,4,0,0,0-1,1,3.81,3.81,0,0,0-.57,1.38,3.69,3.69,0,0,0,0,1.48,3.81,3.81,0,0,0,.57,1.38,3.5,3.5,0,0,0,1,1,3.78,3.78,0,0,0,1.37.58L141.16,97v5.89c0,.08,0,.15,0,.23s0,.4,0,.6c0,1.85.09,3.61.25,5.29l-8.63,1.72a3.78,3.78,0,0,0-1.37.58,3.5,3.5,0,0,0-1,1,3.81,3.81,0,0,0-.57,1.38A3.69,3.69,0,0,0,129.79,115.2Zm-3.89,50.45c4.83,12.58,7.63,25.66,7.63,36.56,0,6.65-1,12-3.16,16.17a11.07,11.07,0,0,0-4.47-.91ZM136.58,223c.39.84.82,1.67,1.29,2.47a11.36,11.36,0,0,0-.53,3.22,11.5,11.5,0,0,0-1.22-4.88C136.28,223.5,136.43,223.22,136.58,223Zm6.59-4a33.34,33.34,0,0,1-2-12.44c0-10.28,2.84-22.76,7.62-34.44v45.41a11.49,11.49,0,0,0-5.61,1.47ZM57.23,95.27C57.23,82.7,68.54,61,80.12,61S103,82.7,103,95.27c0,5.9-3.16,7.74-22.89,7.74C62.66,103,57.23,101.94,57.23,95.27Zm61.89-69.93,19.76,26.52a19.25,19.25,0,0,1,2.28,8.71v.11A19.38,19.38,0,0,1,129.7,78.53c-.17-9.28-1.89-13.27-4.87-20.21-1.78-4.14-4-9.3-6.75-17.56-3.21-9.61-6.22-16.5-9.54-21.68h.94C112.8,19.62,115.79,21.57,119.12,25.34ZM30.54,78.53A19.33,19.33,0,0,1,20.15,67.19a19.33,19.33,0,0,1,1.2-15.33L41.12,25.34c3.33-3.77,6.32-5.72,9.63-6.26h1c-3.33,5.18-6.33,12.07-9.54,21.68-2.75,8.26-5,13.42-6.75,17.56C32.42,65.26,30.71,69.25,30.54,78.53Zm7.61,1.59c0-8.87,1.25-11.77,4.27-18.79,1.74-4,4.13-9.59,7-18.16,8.11-24.31,15.28-31.72,30.72-31.72s22.61,7.41,30.72,31.72c2.85,8.57,5.24,14.11,7,18.16,3,7,4.27,9.92,4.27,18.79,0,14-6.78,22.89-11.45,22.89h-2a14.68,14.68,0,0,0,2-7.74c0-14.7-12.59-41.86-30.52-41.86S49.6,80.57,49.6,95.27a14.59,14.59,0,0,0,2,7.74h-2C44.93,103,38.15,94.09,38.15,80.12Zm-3.81,85.53v51.82a11.15,11.15,0,0,0-4.48.91c-2.11-4.2-3.15-9.52-3.15-16.17C26.71,191.31,29.51,178.23,34.34,165.65ZM8,217.47H21.25a30.51,30.51,0,0,0,2.87,6.29,11.43,11.43,0,0,0-.67,8.68A19.14,19.14,0,0,1,8,217.47Zm72.11-30.53c-10.56,0-15.26-4.7-15.26-15.26,0-14.26,8.13-30.52,15.26-30.52s15.26,16.26,15.26,30.52C95.38,182.24,90.67,186.94,80.12,186.94Zm0,35.23a11,11,0,0,0,3.81,2.28v4.46a11.58,11.58,0,0,0,.66,3.82H75.65a11.57,11.57,0,0,0,.65-3.82v-4.46A11,11,0,0,0,80.12,222.17Zm45.78,10.56H95.38a3.86,3.86,0,0,1-2.7-1.12,3.9,3.9,0,0,1-1.12-2.7v-7.63a3.79,3.79,0,0,0-3.81-3.81,3.84,3.84,0,0,1-3.8-4,.77.77,0,0,0,0-.15v-19c12.34-1.32,19.08-9.26,19.08-22.7a56.32,56.32,0,0,0-6-24.44c-4.53-8.84-10.52-13.71-16.88-13.71s-12.36,4.87-16.88,13.71a56.18,56.18,0,0,0-6,24.44c0,13.44,6.73,21.38,19.07,22.7v19s0,.1,0,.15a3.84,3.84,0,0,1-3.8,4,3.81,3.81,0,0,0-3.82,3.81v7.63a3.82,3.82,0,0,1-3.81,3.82H34.34a3.82,3.82,0,1,1,0-7.63H49.6a3.82,3.82,0,1,0,0-7.63H42V137.35a34.05,34.05,0,0,1,12.75-26.71h50.8a34.05,34.05,0,0,1,12.75,26.71v80.12h-7.63a3.82,3.82,0,0,0,0,7.63H125.9a3.82,3.82,0,0,1,0,7.63Zm42-7.1v-1.07a7.1,7.1,0,0,1,7.1-7.09h8.16v15.26H175a7.12,7.12,0,0,1-7.1-7.1Zm19.07-31.06c-4,0-7.63-1.18-7.63-9.81,0-10.69,5.25-20.71,7.63-20.71s7.63,10,7.63,20.71C194.57,193.39,190.91,194.57,186.94,194.57Zm49.6,31.06a7.12,7.12,0,0,1-7.1,7.1H190.76V217.47h11.45v3.81a3.81,3.81,0,1,0,7.62,0v-3.81h7.64v3.81a3.81,3.81,0,0,0,3.81,3.82h0a3.82,3.82,0,0,0,3.81-3.82c0-1,0-3.81,0-3.81h4.33a7.1,7.1,0,0,1,7.1,7.09Zm-3.95-15.45a14.47,14.47,0,0,0-3.15-.34H225.1V172c4.78,11.69,7.63,24.17,7.63,34.47,0,1.27,0,2.5-.14,3.68Zm-15.12-57.57v11.44h-3.82a3.82,3.82,0,0,0-2.7,1.12,3.81,3.81,0,0,0,2.7,6.51h3.82v7.63h-3.82a3.82,3.82,0,1,0,0,7.63h3.82v22.89H190.76v-8c5.36-1.08,11.45-5,11.45-17.08A47.37,47.37,0,0,0,198.54,167c-3.77-8.78-8.39-10.62-11.6-10.62s-7.82,1.84-11.59,10.62a47.17,47.17,0,0,0-3.67,17.72c0,12.12,6.09,16,11.45,17.08v8H175a14.75,14.75,0,0,0-14.73,14.73v1.07a14.61,14.61,0,0,0,1.83,7.1H149a4,4,0,0,1-4.05-3.64,3.84,3.84,0,0,1,2.31-3.69,3.83,3.83,0,0,1,1.5-.3h7.64a3.82,3.82,0,0,0,2.72-6.51,3.77,3.77,0,0,0-2.69-1.12h0V186.94h3.83a3.82,3.82,0,0,0,0-7.63h-3.83v-7.63h3.83a3.82,3.82,0,0,0,0-7.63h-3.83V152.61A26.52,26.52,0,0,1,163,135.08c5.21,1.34,12.64,2.27,24,2.27,7.92,0,16.51-.34,23.95-2.28A26.44,26.44,0,0,1,217.47,152.61Zm-1.38-27.78A23.87,23.87,0,0,1,211,127.1l-.24.08c-5.5,1.75-13.06,2.54-23.86,2.54-14.76,0-23.48-1.46-29.15-4.89a16.85,16.85,0,0,1-7.53-9.83l3.1-.62a3.81,3.81,0,0,0,1.36-6.91,3.76,3.76,0,0,0-2.86-.57l-2.94.59c-.09-1.2-.13-2.46-.13-3.79,0-1.72.08-3.44.24-5.15l2.83.57a3.81,3.81,0,0,0,1.5-7.48l-3.1-.62c2.49-10.48,8.24-19.87,17.61-25.24v6.71a3.82,3.82,0,0,0,7.63,0V62.57a40.3,40.3,0,0,1,7.63-1.37V80.12a3.82,3.82,0,0,0,7.63,0V61.2a40.3,40.3,0,0,1,7.63,1.37v9.92a3.82,3.82,0,0,0,7.63,0V65.78c9.37,5.37,15.12,14.76,17.61,25.24l-3.1.62a3.84,3.84,0,0,0-1.37.57,3.81,3.81,0,0,0-1.62,2.43,3.8,3.8,0,0,0,.57,2.86,3.66,3.66,0,0,0,1.06,1,3.8,3.8,0,0,0,2.86.57l2.83-.57c.16,1.71.24,3.43.24,5.15,0,1.33,0,2.59-.13,3.79L222,106.9a3.83,3.83,0,0,0-4.49,3,3.82,3.82,0,0,0,3,4.49l3.1.62A16.82,16.82,0,0,1,216.09,124.83Z" transform="translate(0 -3.82)"/><path class="cls-3" d="M206,95.38a3.82,3.82,0,1,0-3.81-3.82A3.81,3.81,0,0,0,206,95.38Z" transform="translate(0 -3.82)"/><path class="cls-3" d="M167.87,95.38a3.82,3.82,0,1,0-3.82-3.82A3.81,3.81,0,0,0,167.87,95.38Z" transform="translate(0 -3.82)"/><path class="cls-3" d="M95.38,49.46a3.82,3.82,0,1,0-3.82-3.82A3.81,3.81,0,0,0,95.38,49.46Z" transform="translate(0 -3.82)"/><path class="cls-3" d="M64.86,49.46A3.82,3.82,0,1,0,61,45.64,3.81,3.81,0,0,0,64.86,49.46Z" transform="translate(0 -3.82)"/><path class="cls-3" d="M91.56,87.75c-6.91,0-7.57-3.18-7.63-3.9V80.12a3.82,3.82,0,0,0,3.82-3.82,7.63,7.63,0,0,0-15.26,0,3.82,3.82,0,0,0,3.81,3.82v3.81a3.68,3.68,0,0,1-.66,1.53c-1.13,1.5-3.53,2.29-7,2.29a3.82,3.82,0,0,0,0,7.63c5.65,0,9.21-1.59,11.45-3.58,2.24,2,5.8,3.58,11.44,3.58a3.82,3.82,0,0,0,0-7.63Zm-7.63-3.82v0Z" transform="translate(0 -3.82)"/><path class="cls-3" d="M196.28,114.86c-2.45-1.23-5.13-3.32-5.52-4.29v-3.74a3.81,3.81,0,0,0,3.81-3.82,7.63,7.63,0,1,0-15.26,0,3.82,3.82,0,0,0,3.82,3.82v3.74c-.39,1-3.07,3.06-5.51,4.28a4.05,4.05,0,0,0-1.18.91,3.87,3.87,0,0,0-.74,1.29,3.73,3.73,0,0,0-.19,1.48,3.64,3.64,0,0,0,.39,1.44,3.74,3.74,0,0,0,.91,1.18,3.68,3.68,0,0,0,1.29.74,3.84,3.84,0,0,0,1.47.19,4,4,0,0,0,1.44-.39,27.2,27.2,0,0,0,5.93-4,27.5,27.5,0,0,0,5.94,4,3.82,3.82,0,0,0,2.91.2A3.81,3.81,0,0,0,198,120a3.81,3.81,0,0,0,.2-2.91,3.84,3.84,0,0,0-1.91-2.2Z" transform="translate(0 -3.82)"/></g></g></g></svg>