<svg xmlns="http://www.w3.org/2000/svg" xmlns:xlink="http://www.w3.org/1999/xlink" viewBox="0 0 172.96 173"><defs><style>.cls-1{fill:none;}.cls-2{clip-path:url(#clip-path);}.cls-3{fill:#1b1e37;}</style><clipPath id="clip-path" transform="translate(-0.02)"><rect class="cls-1" width="173" height="173"/></clipPath></defs><title>Recurso 2</title><g id="Capa_2" data-name="Capa 2"><g id="Capa_1-2" data-name="Capa 1"><g class="cls-2"><path class="cls-3" d="M135.89,9.8A29,29,0,0,0,114,0C104.44,0,96.19,4.5,90.1,13c-.46.64-.89,1.28-1.29,1.91-.4-.63-.82-1.27-1.28-1.91C81.44,4.5,73.19,0,63.67,0A29,29,0,0,0,41.73,9.79a33.82,33.82,0,0,0-8.27,22.57c0,9.3,3.61,17.88,11.36,27C51.58,67.32,61.27,75.5,72.5,85c4.15,3.5,8.44,7.12,13,11.07a5.06,5.06,0,0,0,6.64,0c4.56-4,8.85-7.57,13-11.07,7.21-6.08,13.43-11.34,18.84-16.44,10.49-9.89,20.19-21.13,20.19-36.18A33.72,33.72,0,0,0,135.89,9.8ZM117,61.17c-5.2,4.91-11.33,10.08-18.42,16.07-3.16,2.66-6.39,5.39-9.78,8.29-3.38-2.9-6.62-5.63-9.78-8.29C56.94,58.58,43.6,47.33,43.6,32.36c0-12.67,8.63-22.22,20.07-22.22,6.12,0,11.32,2.87,15.46,8.55a34.4,34.4,0,0,1,4.8,9.52,5.07,5.07,0,0,0,9.77,0c0-.18,5.18-18.07,20.25-18.07,11.45,0,20.08,9.55,20.08,22.22C134,41.54,129.26,49.62,117,61.17Z" transform="translate(-0.02)"/><path class="cls-3" d="M157.78,102.06a15.25,15.25,0,0,0-11.13,4.84l-14.89,16a15.22,15.22,0,0,0-14.52-10.7H93.83a13.5,13.5,0,0,1-8.9-3.35,35.54,35.54,0,0,0-46.48-.33A15.17,15.17,0,0,0,26,102.06H5.09A5.07,5.07,0,0,0,0,107.13v60.8A5.07,5.07,0,0,0,5.09,173H26a15.17,15.17,0,0,0,11.43-5.19l3,.84A116.29,116.29,0,0,0,72,173h45.25a35.64,35.64,0,0,0,28.38-14.19L170,126.38h0a15.2,15.2,0,0,0-12.17-24.31ZM31.1,157.8A5.08,5.08,0,0,1,26,162.87H10.15V112.19H26a5.08,5.08,0,0,1,5.07,5.07Zm130.74-37.51h0l-24.33,32.44a25.46,25.46,0,0,1-20.27,10.14H72a106.58,106.58,0,0,1-28.8-4l-2-.56c0-.18,0-.36,0-.54V119.55l3.53-3.11a25.41,25.41,0,0,1,33.48,0,23.56,23.56,0,0,0,15.59,5.89h23.41a5.07,5.07,0,1,1,0,10.13h-36a5.07,5.07,0,0,0,0,10.14h39.41a15.26,15.26,0,0,0,11.12-4.84l22.31-23.95a5.07,5.07,0,0,1,7.77,6.48Z" transform="translate(-0.02)"/></g></g></g></svg>