<svg xmlns="http://www.w3.org/2000/svg" viewBox="0 0 60 59.98"><defs><style>.cls-1,.cls-2,.cls-3,.cls-4{fill:none;}.cls-1,.cls-2,.cls-3,.cls-4,.cls-5{stroke:#000;stroke-miterlimit:10;}.cls-1,.cls-5{stroke-width:1.5px;}.cls-3{stroke-width:0.5px;}.cls-4{stroke-width:0.75px;}.cls-5{fill:#9e005d;}</style></defs><title>Logo_Final3</title><g id="Casita"><polygon points="29.8 3.81 1.95 26.86 0 24.45 29.78 0 29.8 3.81"/><polygon points="44.63 12.46 41.47 10.59 41.51 2.17 44.59 2.17 44.63 12.46"/><polygon points="3.17 24.89 3.25 59.34 5.88 59.25 5.67 22.55 3.17 24.89"/><rect x="1.81" y="58.69" width="58.19" height="1.29"/><polygon points="55.89 24.89 55.82 59.34 53.19 59.25 53.4 22.55 55.89 24.89"/><polygon points="29.56 3.98 57.41 27.03 59.51 24.45 29.72 0.01 29.56 3.98"/></g><g id="Capa_7" data-name="Capa 7"><path class="cls-1" d="M27.84,36.82c-.64,4.49-4.92,6.54-9.84,5.84S9.28,38.6,9.92,34.11,15.4,25.9,20.31,26.6A9.26,9.26,0,0,1,27.84,36.82Z" transform="translate(0 -0.02)"/><path class="cls-1" d="M11.78,30.14A26,26,0,0,1,13,24.52a2.12,2.12,0,0,1,1-1.24,1.06,1.06,0,0,1,.86-.05c.25.09.53.27,1,.95a12.3,12.3,0,0,1,1.25,2.48" transform="translate(0 -0.02)"/><path class="cls-1" d="M27.56,33a26.27,26.27,0,0,0,.69-5.71,2.09,2.09,0,0,0-.52-1.49,1.05,1.05,0,0,0-.78-.34,2.2,2.2,0,0,0-1.26.58,12.31,12.31,0,0,0-2,1.92" transform="translate(0 -0.02)"/><polyline class="cls-1" points="13.13 40.81 10.96 44.27 14.44 48.22"/><line class="cls-1" x1="18.21" y1="50.98" x2="19.57" y2="51.64"/><path class="cls-1" d="M25.09,53.6l1.9.18c0-.15.09-.37.14-.63a9.25,9.25,0,0,0,.17-1.67,8.31,8.31,0,0,0-.22-1.85,7.67,7.67,0,0,0-.31-.93,6.89,6.89,0,0,0-.39-.77,12.56,12.56,0,0,0-.78-1.18,2.84,2.84,0,0,1-.44-.84,5.66,5.66,0,0,1-.24-.73c-.05-.21-.08-.39-.12-.64-.09-.57-.13-1-.15-1.13a8,8,0,0,0-.35-1.61" transform="translate(0 -0.02)"/><path class="cls-1" d="M14,47.31c0-.18.19-.54,1-.78a2.11,2.11,0,0,1,.52-.08,2.87,2.87,0,0,1,.59,0,2.88,2.88,0,0,1,.54.16,3.75,3.75,0,0,1,.53.26,2.35,2.35,0,0,1,.42.42,2.17,2.17,0,0,1,.25.39,2.91,2.91,0,0,1,.33.84,5.41,5.41,0,0,1,.12.67,7.63,7.63,0,0,1,.06,1.22,4.85,4.85,0,0,1-.1.59,4.48,4.48,0,0,1-.37,1,1.92,1.92,0,0,1-.37.47,1.8,1.8,0,0,1-.51.34,3.61,3.61,0,0,1-.66,0,3.29,3.29,0,0,1-.51-.1,2.14,2.14,0,0,1-.76-.75,4.52,4.52,0,0,1-.3-1.45c0-.48,0-.72,0-1.12a3,3,0,0,0-.09-.7l0-.16c0-.06-.05-.13-.08-.2C14.24,47.69,14,47.55,14,47.31Z" transform="translate(0 -0.02)"/><path class="cls-1" d="M25.09,53.6c.3-.1-.52-2.94-.89-3.8a2.83,2.83,0,0,0-.47-.79,3,3,0,0,0-.51-.48,2.91,2.91,0,0,0-.86-.33,3.24,3.24,0,0,0-.58-.05,1.64,1.64,0,0,0-1.11.53,3.16,3.16,0,0,0-.44.58,5.69,5.69,0,0,0-.33.61,4.88,4.88,0,0,0-.25.83,4.69,4.69,0,0,0-.08,1,3.78,3.78,0,0,0,.1,1,2.27,2.27,0,0,0,.23.57,1.78,1.78,0,0,0,.4.49A3.73,3.73,0,0,0,21,54a3.69,3.69,0,0,0,.53.07,2.49,2.49,0,0,0,.57-.22,2.45,2.45,0,0,0,.4-.29,4.42,4.42,0,0,0,.74-1.3c.16-.47.23-.7.38-1.09h0c.06,0-.86,1.9-.24,2.08A7.22,7.22,0,0,0,25.09,53.6Z" transform="translate(0 -0.02)"/><path class="cls-1" d="M21,51.1" transform="translate(0 -0.02)"/><path class="cls-1" d="M23.79,53.51" transform="translate(0 -0.02)"/><path class="cls-1" d="M18.85,43.62" transform="translate(0 -0.02)"/><path class="cls-2" d="M19.64,44.29" transform="translate(0 -0.02)"/><path class="cls-3" d="M16.75,43.82a9.7,9.7,0,0,1-4.05-2.24L13,41a13.59,13.59,0,0,0,11.33.9l.2.79a9.38,9.38,0,0,1-3,1.38,8.35,8.35,0,0,1-1.94.23" transform="translate(0 -0.02)"/><path class="cls-1" d="M16.75,43.82" transform="translate(0 -0.02)"/><circle class="cls-4" cx="18.13" cy="44.37" r="1.48"/><path class="cls-1" d="M27.3,25.49a10.11,10.11,0,0,1,1.11-3.27,8.14,8.14,0,0,1,1.51-1.92,7.58,7.58,0,0,1,.73-.63,8.11,8.11,0,0,1,2.65-1.34,9,9,0,0,1,5.84.1A9.35,9.35,0,0,1,43.05,21a4.28,4.28,0,0,1,.54.71l.26.46.15.27c.14.25.29.49.6,1,.66,1,1.08,1.27,1.63,2.09a8.21,8.21,0,0,1,1.21,2.85,9.74,9.74,0,0,1,.19,1.54,8.48,8.48,0,0,1-.2,2.89,6.48,6.48,0,0,1-.65,1.6,7.23,7.23,0,0,1-1.7,1.9,12.05,12.05,0,0,1-2.45,1.59,13.42,13.42,0,0,1-2.74,1,15.78,15.78,0,0,1-4.29.45,11.6,11.6,0,0,1-3.85-.45,9.68,9.68,0,0,1-3.82-2.36" transform="translate(0 -0.02)"/><path class="cls-1" d="M23.93,27.68a7.45,7.45,0,0,0,1.63-2.38,7,7,0,0,0,.2-1.49,5.28,5.28,0,0,1,.32-1.7,3.26,3.26,0,0,1,.74-1,3.84,3.84,0,0,1,1.08-.71,4.37,4.37,0,0,1,1.31-.29,6,6,0,0,1,.85.08" transform="translate(0 -0.02)"/><path class="cls-1" d="M39.58,18.59a11.34,11.34,0,0,1,1.42-.4,4.54,4.54,0,0,1,1.26,0,2.48,2.48,0,0,1,.9.21,3,3,0,0,1,1.05.73,3.25,3.25,0,0,1,.56,1,6,6,0,0,0,.47,1A3.83,3.83,0,0,0,46,22a5.25,5.25,0,0,0,.94.58,7.83,7.83,0,0,1,1.35,1,5.62,5.62,0,0,1,1,1.2A5.76,5.76,0,0,1,50,26.53a6.87,6.87,0,0,1,.22,1.8,4.21,4.21,0,0,1-.3,1.45,4,4,0,0,1-.77,1.29,11.72,11.72,0,0,1-1.57,1.24" transform="translate(0 -0.02)"/><path class="cls-1" d="M30.93,38.53a16.25,16.25,0,0,0-1.64,2,13.8,13.8,0,0,0-1.18,2.23,11.54,11.54,0,0,0-1,3.63,10.78,10.78,0,0,0,.24,3.48A4.67,4.67,0,0,0,28.17,52a4.83,4.83,0,0,0,3,1.49,8.22,8.22,0,0,0,2.05.12" transform="translate(0 -0.02)"/><path class="cls-1" d="M30.51,50c-1,.27,1.38-.34,1.92-.4a11.8,11.8,0,0,1,1.92-.14,5.31,5.31,0,0,1,1.38.17,4.1,4.1,0,0,1,1.39.53,3.53,3.53,0,0,1,1.14,1.08A3.18,3.18,0,0,1,38.8,53a2.35,2.35,0,0,1-.47,1.58,2.32,2.32,0,0,1-1.26.73,3.2,3.2,0,0,1-1.46,0,3,3,0,0,1-1.44-.59,5.16,5.16,0,0,1-1-1.62" transform="translate(0 -0.02)"/><path d="M36.14,55.39h-.57a3,3,0,0,0,.2-.79,3.06,3.06,0,0,0-.12-1.2,2.58,2.58,0,0,1,.31.54,2.67,2.67,0,0,1,.16.44c0,.14,0,.31.05.49A4.05,4.05,0,0,1,36.14,55.39Z" transform="translate(0 -0.02)"/><path class="cls-5" d="M36.48,54.36" transform="translate(0 -0.02)"/><path d="M37.68,55.17h-.57a3.23,3.23,0,0,0,.2-.79,3.11,3.11,0,0,0-.12-1.21,3.23,3.23,0,0,1,.31.54,2.67,2.67,0,0,1,.16.44c0,.15,0,.31.05.49A4.22,4.22,0,0,1,37.68,55.17Z" transform="translate(0 -0.02)"/><path class="cls-1" d="M46.21,45.27c-.1-.12-.5-1,.18.37a6,6,0,0,1,.52,2.06,5.24,5.24,0,0,1-.09,1.55,3.2,3.2,0,0,1-.63,1.31,2.37,2.37,0,0,1-1.16.87,2.17,2.17,0,0,1-1.55-.18,2.45,2.45,0,0,1-1.14-1.16,3.08,3.08,0,0,1-.42-1.42c0-.2,0-.37,0-.47a6.46,6.46,0,0,1,0-1,5,5,0,0,1,.21-1.07,5.38,5.38,0,0,1,.39-.91,5.45,5.45,0,0,1,.66-1,3.4,3.4,0,0,1,2.23-1A3.45,3.45,0,0,1,48,44.18" transform="translate(0 -0.02)"/><path d="M44.93,51.26l.56-.13a1.73,1.73,0,0,1-.34-.56,1.81,1.81,0,0,1-.1-1,1.85,1.85,0,0,0-.21.49,2.06,2.06,0,0,0-.07.38,2,2,0,0,0,0,.39A1.8,1.8,0,0,0,44.93,51.26Z" transform="translate(0 -0.02)"/><path class="cls-5" d="M44.42,50.54" transform="translate(0 -0.02)"/><path d="M43.39,51.45l.56-.14a1.73,1.73,0,0,1-.34-.56,1.81,1.81,0,0,1-.1-1,1.85,1.85,0,0,0-.21.49,2.06,2.06,0,0,0-.07.38,1.84,1.84,0,0,0,0,.39A2.09,2.09,0,0,0,43.39,51.45Z" transform="translate(0 -0.02)"/><polyline class="cls-1" points="38.8 51.74 40.76 50.98 42.34 50.07"/><path class="cls-1" d="M46.59,45.88c.27-.29.74-.86,1.15-1.41s.44-.72,1.14-1.82,1-1.41,1-1.86a2.76,2.76,0,0,0-.57-1.27,10.14,10.14,0,0,0-1.44-1.8,8,8,0,0,0-1.43-1.14,6.61,6.61,0,0,0-1-.52" transform="translate(0 -0.02)"/><path class="cls-1" d="M39.48,41.08" transform="translate(0 -0.02)"/><path class="cls-3" d="M37,40.66a13.51,13.51,0,0,1-6.4-1.54c.08-.22.22-.37.3-.59a24.3,24.3,0,0,0,7.28.59,13.53,13.53,0,0,0,7.18-3.06c.14.24.35.19.49.43a12.12,12.12,0,0,1-5.76,3.74" transform="translate(0 -0.02)"/><path class="cls-2" d="M37,40.66" transform="translate(0 -0.02)"/><path class="cls-1" d="M40.12,40.23" transform="translate(0 -0.02)"/><circle class="cls-4" cx="38.61" cy="40.95" r="1.64"/><path d="M16.76,52.45a3.06,3.06,0,0,1,.12-1.2,2.58,2.58,0,0,0-.31.54,2.67,2.67,0,0,0-.16.44" transform="translate(0 -0.02)"/><path d="M15.86,52.32A3,3,0,0,1,16,51.11a3,3,0,0,0-.32.55,2.55,2.55,0,0,0-.15.44,2.31,2.31,0,0,0,0,.49" transform="translate(0 -0.02)"/><path d="M21.64,53.66a3,3,0,0,1,.12-1.21,3.21,3.21,0,0,0-.32.54,2.55,2.55,0,0,0-.15.44" transform="translate(0 -0.02)"/><path d="M20.82,53.36a3,3,0,0,1,.12-1.21,3,3,0,0,0-.32.55,2.55,2.55,0,0,0-.15.44c0,.14,0,.3,0,.49" transform="translate(0 -0.02)"/></g></svg>